<svg xmlns="http://www.w3.org/2000/svg" viewBox="0 0 610.7443 611.81114">
  <title>delivery-type</title>
  <g>
    <path d="M415.19625,303.56612a22.21622,22.21622,0,0,0-21.362-20.04709l-72.26782-1.108a9.97687,9.97687,0,0,1-9.10477-7.907L296.53893,173.275c-0.57712-3.667-3.99637-18.61787-22.66187-18.61787l-89.86894,3.91333c-11.83933.51451-21.464,6.27084-21.464,22.42639,0,0-.3784,224.99754-0.83847,233.15086l-3.14426,55.66852a91.9827,91.9827,0,0,1-6.32529,26.27847l-36.3755,82.33218a18.97718,18.97718,0,0,0,13.06709,26.65826l12.1102,3.00543a23.265,23.265,0,0,0,5.60522.67377c9.77582,0,19.127-5.67328,23.27031-14.11792l34.57744-70.48059a171.14524,171.14524,0,0,0,10.59795-29.41046l19.5108-81.27591,47.21709,72.20792c3.89291,5.95367,8.009,17.37787,8.808,24.44769l9.1279,80.84174A24.08893,24.08893,0,0,0,323.1155,611.846l13.81027-.04767a20.1836,20.1836,0,0,0,20.24445-22.42914l-9.53354-96.11389a139.95143,139.95143,0,0,0-7.24814-30.64368l-42.30878-110.508-0.26135-23.29617,98.33118-3.63971a19.785,19.785,0,0,0,19.12057-20.42783q-0.01639-.49562-0.05759-0.98993ZM323.11544,605.03747h0Z" transform="translate(0 -0.03487)"/>
    <path d="M212.73669,133.2938A66.66506,66.66506,0,0,0,278.98,59.40622l22.33112-2.5195c7.78171-.87795,15.68051-7.08481,18.37286-14.43777l7.47952-20.42689a13.05587,13.05587,0,0,0-1.15561-12.117,12.51735,12.51735,0,0,0-10.50812-5.1193c-0.51044,0-1.03857.0245-1.58029,0.07622L249.349,11.00351A66.62573,66.62573,0,1,0,212.73669,133.2938Z" transform="translate(0 -0.03487)"/>
    <path d="M494.85921,237.58414l-6.42465-92.34483a21.71437,21.71437,0,0,0-21.35791-19.88784l-123.44177.21506a19.38181,19.38181,0,0,0-19.50052,19.26237q-0.005.8104,0.05777,1.61911l6.42465,92.34483a21.70639,21.70639,0,0,0,21.32114,19.88785l123.47855-.21506a19.37986,19.37986,0,0,0,19.50067-19.2583Q494.92222,238.39489,494.85921,237.58414Zm-142.92267,14.2894h0Z" transform="translate(0 -0.03487)"/>
  </g>
  <path d="M513.78347,337.288L607.55416,529.9193c3.81317,7.83435-.195,14.24377-8.90808,14.24377H10.35159c-8.713,0-12.72227-6.40936-8.90808-14.24377L95.21513,337.288a10.86138,10.86138,0,0,1,8.90808-5.57153h80.40458a11.25688,11.25688,0,0,1,7.44629,3.42511c5.45509,6.30392,11.0117,12.46255,16.55238,18.5585,5.26205,5.78647,10.552,11.64856,15.80011,17.648H128.90613a10.85637,10.85637,0,0,0-8.90808,5.57153L57.87826,504.53252H551.11648L489.0017,376.9197a10.85671,10.85671,0,0,0-8.90909-5.57153H384.45614c5.24713-5.99942,10.539-11.86154,15.80109-17.648,5.55759-6.11386,11.14505-12.26056,16.6131-18.56644a11.24425,11.24425,0,0,1,7.43335-3.41714h80.57376A10.85493,10.85493,0,0,1,513.78347,337.288Zm-71.42285-131.6429c0,105.257-87.626,124.9977-128.83679,226.15a9.851,9.851,0,0,1-18.2699-.03979C258.07821,340.554,183.16854,315.54436,168.8362,234.2969,154.72475,154.31222,210.10372,75.9625,290.963,68.31918A137.99028,137.99028,0,0,1,441.70772,192.24932Q442.35967,198.92741,442.36062,205.64515Zm-65.106,0a69.35386,69.35386,0,1,0,.00006.00118v-0.00118H377.2546Z" transform="translate(0 -0.03487)"/>
  <path d="M0.657,484.36648L0.00005,206.68088a19.01632,19.01632,0,0,1,26.49046-17.5302L279.281,297.21407a19.01457,19.01457,0,0,1,11.541,17.43933L291.479,592.339a19.01648,19.01648,0,0,1-26.49045,17.53119L12.198,501.80682A19.01335,19.01335,0,0,1,.657,484.36648ZM579.851,219.7514l-233.2796,101.03,0.607,256.98361L580.45907,476.73507l-0.608-256.98364m9.43951-33.50095a19.03628,19.03628,0,0,1,19.04968,18.99078l0.65686,277.68558A19.01445,19.01445,0,0,1,597.538,500.42107L345.2626,609.6795a18.97537,18.97537,0,0,1-26.57333-17.40332l-0.65692-277.68661a19.01224,19.01224,0,0,1,11.46017-17.49426L581.76784,187.83787a18.96538,18.96538,0,0,1,7.52264-1.58742h0Zm-286.637-156.408L60.66634,137.88995,303.1618,244.78924,545.15,136.74282,302.65362,29.84252M302.58474,0.42487a19.01985,19.01985,0,0,1,7.71533,1.61535l265.96582,117.2463c15.08722,6.65207,15.13812,28.04192.08185,34.76386L310.939,272.55462a19.01736,19.01736,0,0,1-15.42365.03693L29.55049,155.34527c-15.0882-6.65108-15.13812-28.04191-.08286-34.76385L294.87539,2.07716A19.00855,19.00855,0,0,1,302.58474.42488h0Z" transform="translate(0 -0.03487)"/>
  <g>
    <path d="M318.67813,293.16789H610.7443V37.17954A36.07894,36.07894,0,0,0,574.66646,1.10172H318.67813V293.16789Zm49.89741-65.86458a18.62837,18.62837,0,1,1-18.62837,18.62837A18.62835,18.62835,0,0,1,368.57554,227.30331Z" transform="translate(0 -0.03487)"/>
    <path d="M292.06618,293.16789V1.10172H36.07783A36.07808,36.07808,0,0,0,0,37.17954V293.16789H292.06618Zm-49.89741-65.86458a18.62837,18.62837,0,1,1-18.62837,18.62837A18.62835,18.62835,0,0,1,242.16877,227.30331Z" transform="translate(0 -0.03487)"/>
    <path d="M318.67813,319.77984V611.846H574.66646a36.079,36.079,0,0,0,36.07784-36.07784V319.77984H318.67813Zm49.89741,65.86458a18.62837,18.62837,0,1,1,18.62837-18.62837A18.62835,18.62835,0,0,1,368.57554,385.64442Z" transform="translate(0 -0.03487)"/>
    <path d="M292.06618,319.77984H0V575.76817A36.07809,36.07809,0,0,0,36.07783,611.846H292.06618V319.77984Zm-49.89741,65.86458a18.62837,18.62837,0,1,1,18.62837-18.62837A18.62835,18.62835,0,0,1,242.16877,385.64442Z" transform="translate(0 -0.03487)"/>
  </g>
</svg>
