<svg xmlns="http://www.w3.org/2000/svg" viewBox="0 0 611.27186 611.27186">
  <title>ssd</title>
  <g>
    <path d="M583.48644,1.00006H333.42136V278.85179H611.27187V28.78547A27.78592,27.78592,0,0,0,583.48644,1.00006ZM440.37361,85.39856a23.15306,23.15306,0,1,1,18.19131,27.22786A23.15377,23.15377,0,0,1,440.37361,85.39856Zm87.54323,119.35919H398.25316V149.18813H527.91684v55.56962Z" transform="translate(-0.00001 -1.00006)"/>
    <path d="M55.56963,334.42141H0V584.48774a27.78565,27.78565,0,0,0,27.78541,27.78418h250.0663V334.42141H55.56963ZM125.4755,400.2955a23.15306,23.15306,0,1,1,18.19131,27.22786A23.15373,23.15373,0,0,1,125.4755,400.2955ZM213.0187,519.6547H83.355V464.08509H213.01871V519.6547h0Z" transform="translate(-0.00001 -1.00006)"/>
    <path d="M27.78542,1.00006A27.7859,27.7859,0,0,0,0,28.78547v250.0663H277.85174V1.00006H27.78542Zm97.69008,84.3985a23.15306,23.15306,0,1,1,18.19131,27.22786A23.15376,23.15376,0,0,1,125.4755,85.39856Zm87.5432,119.35919H83.355V149.18813H213.01871v55.56962h0Z" transform="translate(-0.00001 -1.00006)"/>
    <path d="M583.48644,334.42141H333.42136V612.27192H583.48768a27.78567,27.78567,0,0,0,27.78418-27.78542V334.42141H583.48644ZM440.37361,400.2955a23.15307,23.15307,0,1,1,18.19131,27.22786A23.15375,23.15375,0,0,1,440.37361,400.2955ZM527.91684,519.6547H398.25316V464.08509H527.91684V519.6547Z" transform="translate(-0.00001 -1.00006)"/>
  </g>
</svg>
