<svg xmlns="http://www.w3.org/2000/svg" viewBox="0 0 331.51501 334.87601">
  <title>wallet</title>
  <path d="M333.196,155.999H317.129V82.09a32.17007,32.17007,0,0,0-32.134-32.134H263.234L240.965,9.917a19.28,19.28,0,0,0-26.222-7.488L129.279,49.955H33.815A32.17007,32.17007,0,0,0,1.681,82.089V302.742a32.17008,32.17008,0,0,0,32.134,32.134h251.18a32.17008,32.17008,0,0,0,32.134-32.134V237.94h16.067V155.999h0Zm-48.201-93.19a19.24277,19.24277,0,0,1,19.068,17.14H279.911l-9.525-17.14h14.609ZM220.996,13.663a6.54816,6.54816,0,0,1,8.734,2.494l35.476,63.786H101.798Zm83.279,289.079a19.30487,19.30487,0,0,1-19.281,19.281H33.815a19.30487,19.30487,0,0,1-19.281-19.281V82.09A19.30487,19.30487,0,0,1,33.815,62.809h72.353L75.345,79.95H37.832a6.427,6.427,0,0,0,0,12.854H304.275v63.201H257.276a39.63892,39.63892,0,0,0-39.589,39.589v2.764a39.63891,39.63891,0,0,0,39.589,39.589h46.999v64.795h0Zm16.067-77.655H257.276a26.76471,26.76471,0,0,1-26.736-26.736v-2.764a26.76471,26.76471,0,0,1,26.736-26.736h63.066v56.236Zm-43.381-27.59a14.19,14.19,0,1,1-14.19-14.19A14.18542,14.18542,0,0,1,276.961,197.497Z" transform="translate(-1.681 0.00003)"/>
</svg>
